<svg width="245.19981617647056" height="262.871875" viewBox="0 -8 110.99999999999999 118.99999999999999" class="css-1j8o68f"><defs id="SvgjsDefs5752"></defs><g id="SvgjsG5753" featurekey="rootContainer" transform="matrix(1.1099999999999999,0,0,1.1099999999999999,0,-8)" fill="#000000"><path xmlns="http://www.w3.org/2000/svg" d="M0 0h100v100H0z"></path></g><g id="SvgjsG5754" featurekey="U6MYgK-0" transform="matrix(3.8309122456235776,0,0,3.8309122456235776,-0.9958585305181558,-9.714593793444)" fill="#f2f4f7"><path d="M10.547 13.3594 l-1.4844 6.6797 l-4.9512 0 l1.5234 -6.6797 l-0.88867 0 l0.98633 -4.2773 l-3.9063 0 l0.85938 -3.7012 l12.676 0 l-0.83008 3.7012 l-3.8965 0 l-0.95703 4.2773 l0.86914 0 z M13.935503125 13.789100000000001 l-1.0352 0 c0.58594 -3.3789 3.2227 -6.9629 6.3477 -8.0469 c3.2129 -1.123 5.8691 -0.57617 8.6816 0.94727 l-0.9375 4.0332 l-1.543 0 c-0.22461 -0.54688 -0.078125 -1.6211 -2.3438 -1.8164 c-3.2227 -0.2832 -5.3418 2.5391 -5.7227 4.8828 l1.0352 0 c-0.19531 1.2207 0.068359 2.3242 0.89844 2.7734 c0.54688 0.29297 1.3379 0.42969 2.5098 0.29297 l0.019531 0 l0.36133 -1.582 l-2.3242 0 l0.3418 -1.4844 l-1.0547 0 l0.50781 -2.1875 l7.168 0 l-0.49805 2.1875 l1.0449 0 l-1.2402 5.3809 c-0.49805 0.20508 -1.0156 0.37109 -1.5332 0.54688 c-2.3242 0.71289 -5.3027 1.1914 -7.6172 0.26367 c-2.7441 -1.0742 -3.5156 -3.5742 -3.0664 -6.1914 z"></path></g><g id="SvgjsG5755" featurekey="Nr57KM-0" transform="matrix(0.5830223735369617,0,0,0.5830223735369617,15.790112006688174,72.79337638953325)" fill="#f2f4f7"><path d="M3.78 8.54 l-3.42 0 l0 -2.84 l10.3 0 l-0.46 1.4 l-0.46 1.44 l-2.68 0 l0.06 0.56 l0 10.9 l-3.34 0 l0 -11.46 z M17.456000000000003 20.22 c-1.0933 0 -2.0234 -0.18666 -2.79 -0.56 s-1.3933 -0.88668 -1.88 -1.54 s-0.84332 -1.43 -1.07 -2.33 s-0.34 -1.8833 -0.34 -2.95 s0.11334 -2.05 0.34 -2.95 s0.58332 -1.6733 1.07 -2.32 s1.1133 -1.15 1.88 -1.51 s1.6967 -0.54 2.79 -0.54 s2.0234 0.18 2.79 0.54 s1.3933 0.86334 1.88 1.51 s0.84 1.42 1.06 2.32 s0.33 1.8833 0.33 2.95 s-0.11 2.05 -0.33 2.95 s-0.57334 1.6767 -1.06 2.33 s-1.1133 1.1667 -1.88 1.54 s-1.6967 0.56 -2.79 0.56 z M17.456000000000003 17.42 c0.92 0 1.5833 -0.38 1.99 -1.14 s0.61 -1.9067 0.61 -3.44 s-0.19666 -2.66 -0.59 -3.38 s-1.0567 -1.08 -1.99 -1.08 c-0.94666 0 -1.6233 0.36 -2.03 1.08 s-0.61 1.8467 -0.61 3.38 s0.20334 2.68 0.61 3.44 s1.0767 1.14 2.01 1.14 z M25.952 5.76 c0.53334 -0.09334 1.0934 -0.15672 1.6801 -0.19006 s1.2733 -0.05 2.06 -0.05 c0.74666 0 1.4433 0.06 2.09 0.18 s1.21 0.32666 1.69 0.62 s0.85666 0.68668 1.13 1.18 s0.41 1.1133 0.41 1.86 c0 0.61334 -0.12334 1.18 -0.37 1.7 s-0.55666 0.93334 -0.93 1.24 c0.28 0.12 0.55334 0.27666 0.82 0.47 s0.50332 0.43668 0.70998 0.73002 s0.37666 0.63668 0.51 1.03 s0.2 0.83668 0.2 1.33 c0 0.88 -0.16 1.6033 -0.48 2.17 s-0.75666 1.01 -1.31 1.33 s-1.19 0.54334 -1.91 0.67 s-1.48 0.19 -2.28 0.19 c-0.56 0 -1.17 -0.01666 -1.83 -0.05 s-1.39 -0.09668 -2.19 -0.19002 l0 -14.22 z M29.232000000000003 17.44 c0.18666 0.02666 0.37666 0.04334 0.57 0.05 s0.36334 0.01 0.51 0.01 c0.24 0 0.5 -0.02334 0.78 -0.07 s0.53334 -0.13666 0.76 -0.27 s0.41666 -0.31668 0.57 -0.55002 s0.23 -0.54334 0.23 -0.93 c0 -0.36 -0.06 -0.65334 -0.18 -0.88 s-0.28666 -0.40332 -0.5 -0.52998 s-0.47 -0.21666 -0.77 -0.27 s-0.63666 -0.08 -1.01 -0.08 l-0.96 0 l0 3.52 z M29.872000000000003 11.36 c0.6 0.02666 1.0934 -0.08 1.48 -0.32 s0.58 -0.7 0.58 -1.38 c0 -0.33334 -0.06 -0.60334 -0.18 -0.81 s-0.27666 -0.37 -0.47 -0.49 s-0.40668 -0.2 -0.64002 -0.24 s-0.46334 -0.06 -0.69 -0.06 l-0.36 0 l-0.36 0.04 l0 3.24 z M38.468 5.699999999999999 l3.26 0 l0 14.3 l-3.26 0 l0 -14.3 z M47.52400000000001 8.2 l-1.42 0 l1.3 -2.48 l4.4 0 l4.48 14.28 l-3.44 0 l-0.8 -2.86 l-0.78 0.06 l-2.78 0 l-0.68 -0.06 l-0.82 2.86 l-3.22 0 z M51.26400000000001 14.42 l-1.32 -4.76 l-1.4 4.76 l2.72 0 z M60.96000000000001 13.620000000000001 c-0.42666 -0.17334 -0.82332 -0.36666 -1.19 -0.58 s-0.68332 -0.47 -0.94998 -0.77 s-0.47332 -0.65334 -0.61998 -1.06 s-0.22 -0.89 -0.22 -1.45 c0 -0.69334 0.12 -1.3033 0.36 -1.83 s0.57666 -0.97 1.01 -1.33 s0.95668 -0.63334 1.57 -0.82 s1.2933 -0.28 2.04 -0.28 c0.61334 0 1.24 0.06334 1.88 0.19 s1.4067 0.34332 2.3 0.64998 l-1.36 2.44 c-0.86666 -0.41334 -1.78 -0.62 -2.74 -0.62 c-0.18666 0 -0.38 0.02 -0.58 0.06 s-0.38 0.11 -0.54 0.21 s-0.29334 0.23666 -0.4 0.41 s-0.16 0.4 -0.16 0.68 c0 0.22666 0.04334 0.41332 0.13 0.55998 s0.19666 0.27332 0.33 0.37998 s0.28668 0.19666 0.46002 0.27 s0.34668 0.14334 0.52002 0.21 l1.18 0.46 c0.50666 0.2 0.97 0.41 1.39 0.63 s0.77666 0.48666 1.07 0.8 s0.52 0.69668 0.68 1.15 s0.24 1.02 0.24 1.7 s-0.12334 1.3 -0.37 1.86 s-0.60666 1.0367 -1.08 1.43 s-1.0567 0.7 -1.75 0.92 s-1.4867 0.33 -2.38 0.33 c-0.41334 0 -0.79334 -0.01334 -1.14 -0.04 s-0.68332 -0.07332 -1.01 -0.13998 s-0.65332 -0.14666 -0.97998 -0.24 s-0.67666 -0.21334 -1.05 -0.36 l0.68 -2.8 c0.54666 0.14666 1.0833 0.27666 1.61 0.39 s1.0633 0.17 1.61 0.17 c0.73334 0 1.2933 -0.09666 1.68 -0.29 s0.61332 -0.56334 0.67998 -1.11 c0.02666 -0.28 -0.0066796 -0.51334 -0.10002 -0.7 s-0.22668 -0.34332 -0.40002 -0.46998 s-0.36668 -0.23 -0.58002 -0.31 l-0.64 -0.24 z M82.792 14.879999999999999 l-2.1 -0.000019531 l1.32 -2.56 l3.88 0 l0 7.24 c-0.77334 0.26666 -1.5167 0.44332 -2.23 0.52998 s-1.3367 0.13 -1.87 0.13 c-1.1733 0 -2.1934 -0.18 -3.06 -0.54 s-1.5867 -0.86 -2.16 -1.5 s-1 -1.4067 -1.28 -2.3 s-0.42 -1.8733 -0.42 -2.94 s0.14666 -2.0534 0.44 -2.96 s0.72334 -1.69 1.29 -2.35 s1.27 -1.1733 2.11 -1.54 s1.8 -0.55 2.88 -0.55 c0.62666 0 1.23 0.04666 1.81 0.14 s1.23 0.28668 1.95 0.58002 l-1.36 2.5 c-0.25334 -0.10666 -0.56 -0.19 -0.92 -0.25 s-0.74666 -0.09 -1.16 -0.09 c-1.1867 0 -2.0834 0.37334 -2.69 1.12 s-0.91 1.88 -0.91 3.4 s0.3 2.6334 0.9 3.34 s1.5067 1.06 2.72 1.06 c0.32 0 0.60666 -0.02666 0.86 -0.08 l0 -2.38 z M91.36800000000001 8.2 l-1.42 0 l1.3 -2.48 l4.4 0 l4.48 14.28 l-3.44 0 l-0.8 -2.86 l-0.78 0.06 l-2.78 0 l-0.68 -0.06 l-0.82 2.86 l-3.22 0 z M95.10800000000002 14.42 l-1.32 -4.76 l-1.4 4.76 l2.72 0 z M111.24400000000001 19.66 c-0.56 0.22666 -1.0966 0.37664 -1.61 0.44998 s-1.0833 0.11 -1.71 0.11 c-1.1333 0 -2.1266 -0.18 -2.98 -0.54 s-1.5633 -0.86334 -2.13 -1.51 s-0.99332 -1.4167 -1.28 -2.31 s-0.43 -1.8733 -0.43 -2.94 s0.14666 -2.0534 0.44 -2.96 s0.72334 -1.6867 1.29 -2.34 s1.27 -1.1633 2.11 -1.53 s1.8 -0.55 2.88 -0.55 c0.62666 0 1.1933 0.06 1.7 0.18 s1 0.28666 1.48 0.5 l-0.82 2.66 c-0.26666 -0.12 -0.56332 -0.22666 -0.88998 -0.32 s-0.71666 -0.14 -1.17 -0.14 c-2.3734 0 -3.56 1.5 -3.56 4.5 c0 1.5067 0.30666 2.62 0.92 3.34 s1.56 1.08 2.84 1.08 c0.42666 0 0.80332 -0.03 1.13 -0.09 s0.65 -0.15 0.97 -0.27 z M117.04000000000002 12.74 l3.76 -7.02 l3.62 0 l-3.78 6.88 l4.24 7.4 l-3.64 0 z M113.74000000000002 8.2 l-1.52 0 l1.3 -2.5 l3.46 0 l0 14.32 l-3.24 0 l0 -11.82 z M131.51600000000002 20.22 c-1.0933 0 -2.0234 -0.18666 -2.79 -0.56 s-1.3933 -0.88668 -1.88 -1.54 s-0.84332 -1.43 -1.07 -2.33 s-0.34 -1.8833 -0.34 -2.95 s0.11334 -2.05 0.34 -2.95 s0.58332 -1.6733 1.07 -2.32 s1.1133 -1.15 1.88 -1.51 s1.6967 -0.54 2.79 -0.54 s2.0234 0.18 2.79 0.54 s1.3933 0.86334 1.88 1.51 s0.84 1.42 1.06 2.32 s0.33 1.8833 0.33 2.95 s-0.11 2.05 -0.33 2.95 s-0.57334 1.6767 -1.06 2.33 s-1.1133 1.1667 -1.88 1.54 s-1.6967 0.56 -2.79 0.56 z M131.51600000000002 17.42 c0.92 0 1.5833 -0.38 1.99 -1.14 s0.61 -1.9067 0.61 -3.44 s-0.19666 -2.66 -0.59 -3.38 s-1.0567 -1.08 -1.99 -1.08 c-0.94666 0 -1.6233 0.36 -2.03 1.08 s-0.61 1.8467 -0.61 3.38 s0.20334 2.68 0.61 3.44 s1.0767 1.14 2.01 1.14 z"></path></g></svg>
